<svg width="56" height="56" viewBox="0 0 56 56" fill="none" xmlns="http://www.w3.org/2000/svg">
<path d="M40.9034 18.1301C40.7401 18.1067 40.5768 18.1067 40.4134 18.1301C36.7968 18.0134 33.9268 15.0501 33.9268 11.4101C33.9268 7.70008 36.9368 4.66675 40.6701 4.66675C44.3801 4.66675 47.4134 7.67675 47.4134 11.4101C47.3901 15.0501 44.5201 18.0134 40.9034 18.1301Z" fill="#0F5132"/>
<path d="M48.5101 34.3C45.8967 36.05 42.2334 36.7033 38.8501 36.26C39.7367 34.3466 40.2034 32.2233 40.2267 29.9833C40.2267 27.65 39.7134 25.4333 38.7334 23.4966C42.1867 23.03 45.8501 23.6833 48.4867 25.4333C52.1734 27.86 52.1734 31.85 48.5101 34.3Z" fill="#0F5132"/>
<path d="M15.0267 18.1301C15.19 18.1067 15.3534 18.1067 15.5167 18.1301C19.1334 18.0134 22.0034 15.0501 22.0034 11.4101C22.0034 7.67675 18.9934 4.66675 15.26 4.66675C11.55 4.66675 8.54004 7.67675 8.54004 11.4101C8.54004 15.0501 11.41 18.0134 15.0267 18.1301Z" fill="#0F5132"/>
<path d="M15.2831 29.9833C15.2831 32.2466 15.7731 34.3932 16.6598 36.3299C13.3698 36.6799 9.93979 35.9799 7.41979 34.3232C3.73312 31.8733 3.73312 27.8832 7.41979 25.4332C9.91645 23.7532 13.4398 23.0766 16.7531 23.4499C15.7965 25.4099 15.2831 27.6266 15.2831 29.9833Z" fill="#0F5132"/>
<path d="M28.2802 37.03C28.0935 37.0067 27.8835 37.0067 27.6735 37.03C23.3802 36.89 19.9502 33.3667 19.9502 29.0267C19.9735 24.5933 23.5435 21 28.0002 21C32.4335 21 36.0269 24.5933 36.0269 29.0267C36.0035 33.3667 32.5969 36.89 28.2802 37.03Z" fill="#0F5132"/>
<path d="M20.6967 41.8599C17.1734 44.2166 17.1734 48.0899 20.6967 50.4232C24.71 53.1066 31.29 53.1066 35.3034 50.4232C38.8267 48.0666 38.8267 44.1932 35.3034 41.8599C31.3134 39.1766 24.7334 39.1766 20.6967 41.8599Z" fill="#0F5132"/>
</svg>
