<svg width="56" height="56" viewBox="0 0 56 56" fill="none" xmlns="http://www.w3.org/2000/svg">
<path d="M51.3332 49.5833H4.6665C3.70984 49.5833 2.9165 50.3766 2.9165 51.3333C2.9165 52.2899 3.70984 53.0833 4.6665 53.0833H51.3332C52.2898 53.0833 53.0832 52.2899 53.0832 51.3333C53.0832 50.3766 52.2898 49.5833 51.3332 49.5833Z" fill="#0F5132"/>
<path d="M39.6667 4.66675H16.3333C9.33333 4.66675 7 8.84341 7 14.0001V51.3334H21V37.1934C21 35.9801 21.98 35.0001 23.1933 35.0001H32.83C34.02 35.0001 35.0233 35.9801 35.0233 37.1934V51.3334H49.0233V14.0001C49 8.84341 46.6667 4.66675 39.6667 4.66675ZM33.8333 21.5834H29.75V25.6667C29.75 26.6234 28.9567 27.4167 28 27.4167C27.0433 27.4167 26.25 26.6234 26.25 25.6667V21.5834H22.1667C21.21 21.5834 20.4167 20.7901 20.4167 19.8334C20.4167 18.8767 21.21 18.0834 22.1667 18.0834H26.25V14.0001C26.25 13.0434 27.0433 12.2501 28 12.2501C28.9567 12.2501 29.75 13.0434 29.75 14.0001V18.0834H33.8333C34.79 18.0834 35.5833 18.8767 35.5833 19.8334C35.5833 20.7901 34.79 21.5834 33.8333 21.5834Z" fill="#0F5132"/>
</svg>
