<svg width="56" height="56" viewBox="0 0 56 56" fill="none" xmlns="http://www.w3.org/2000/svg">
<rect width="56" height="56" rx="28" fill="#FFF8CD"/>
<path d="M32.8333 18.4057L35.424 17.5184C35.829 17.3788 35.8532 16.8153 35.4618 16.6413L28.1917 13.4168C28.0702 13.3517 27.9144 13.3713 27.8085 13.4168L20.5375 16.6413C20.1462 16.8157 20.171 17.3792 20.5762 17.5184L22.7643 18.2675L21.0221 19.0404C20.853 19.116 20.7438 19.2836 20.7429 19.4689V20.1709C20.2613 20.3618 19.9147 20.8318 19.9147 21.3769C19.9147 21.4682 19.9249 21.557 19.9432 21.6432L19.7157 24.5628C19.6701 25.1467 20.1434 25.66 20.7291 25.66H21.6974C22.2831 25.66 22.7563 25.1467 22.7108 24.5628L22.4833 21.6432C22.5016 21.557 22.5118 21.4681 22.5118 21.3769C22.5118 20.8331 22.167 20.3636 21.6872 20.1718V19.7747L23.1669 19.1197L23.1706 23.3273C23.1706 23.3273 23.3175 24.1829 24.0026 25.005C24.2675 25.3229 24.6205 25.6368 25.0695 25.9033L24.7719 27.5386L24.4236 27.2483C24.3441 27.1822 24.245 27.144 24.1417 27.1397C24.0105 27.134 23.883 27.1836 23.7898 27.276L22.335 28.7317C22.2569 28.8098 22.2086 28.9128 22.1987 29.0228L20.5099 29.7829C20.4403 29.8142 20.3791 29.8618 20.3321 29.9219L19.3334 31.1961C19.2721 31.2738 19.2364 31.369 19.232 31.4679L18.8036 42.134C18.7927 42.4013 19.0059 42.6243 19.2735 42.625H36.7231C36.992 42.6262 37.2076 42.4027 37.1966 42.134L36.7682 31.468C36.764 31.369 36.7282 31.2739 36.6669 31.1962L35.6673 29.922C35.6202 29.8619 35.56 29.8143 35.4904 29.7829L33.8016 29.0229C33.7917 28.9129 33.7434 28.8098 33.6653 28.7318L32.2096 27.276C32.1172 27.1846 31.9913 27.1351 31.8613 27.1397C31.7568 27.1439 31.6564 27.1808 31.5757 27.2475L31.2247 27.5396L30.9271 25.9052C31.3778 25.6383 31.7321 25.3238 31.9977 25.0051C32.6828 24.183 32.826 23.3274 32.826 23.3274L32.8333 18.4057ZM28.0001 14.3639L33.9785 17.0136L28.0001 19.0616L25.3495 18.1541L28.1918 16.8956C28.4305 16.7899 28.5378 16.5103 28.4313 16.2719C28.3567 16.102 28.1894 15.9917 28.0038 15.99C27.9365 15.9897 27.8699 16.0043 27.8085 16.0315L24.0367 17.7037L22.0208 17.0136L28.0001 14.3639ZM24.1104 18.7291L27.8463 20.0087C27.9457 20.0429 28.0537 20.0429 28.1531 20.0087L31.8899 18.7291V19.9636L28.0001 20.8268L24.1104 19.9636V18.7291ZM31.8899 20.9291V23.1845C31.8876 23.1972 31.7942 23.7748 31.2735 24.3997C30.7469 25.0317 29.821 25.684 28.0001 25.684C26.1793 25.684 25.2534 25.0317 24.7267 24.3997C24.206 23.7748 24.1126 23.1978 24.1104 23.1845V20.93L27.8951 21.7703C27.9628 21.7846 28.0329 21.7846 28.1006 21.7703L31.8899 20.9291ZM21.2129 21.0223C21.4141 21.0223 21.5685 21.1758 21.5685 21.377C21.5685 21.5782 21.4141 21.7326 21.2129 21.7326C21.0117 21.7326 20.8582 21.578 20.8582 21.377C20.8582 21.1758 21.0117 21.0223 21.2129 21.0223ZM20.8139 22.6051C20.9408 22.6472 21.0729 22.6761 21.2129 22.6761C21.3528 22.6761 21.4859 22.6472 21.6127 22.6051L21.7703 24.6365C21.774 24.6863 21.7474 24.7168 21.6975 24.7168H20.7292C20.6793 24.7168 20.6525 24.6863 20.6564 24.6365L20.8139 22.6051ZM27.2023 29.5637L25.6047 28.2324L25.9539 26.3087C26.525 26.505 27.2004 26.6284 28.0001 26.6284C28.7984 26.6284 29.4732 26.5061 30.0436 26.3106L30.3955 28.2315L28.7971 29.5637H27.2023ZM24.1518 28.2472L26.4404 30.1552L25.9069 31.2211L23.3623 29.0376L24.1518 28.2472ZM31.8475 28.2472L32.638 29.0376L30.0897 31.2211L29.5562 30.1589L31.8475 28.2472ZM22.7892 29.7903L24.1353 30.9447V41.6817H22.6547V35.3643C22.6538 35.105 22.4441 34.8953 22.1848 34.8944C21.9242 34.8934 21.7122 35.1037 21.7113 35.3643V39.7414H19.8456L20.169 31.6597L20.2436 31.5648L21.4671 32.8123L21.6975 33.9234C21.7505 34.1797 22.0017 34.3439 22.2576 34.2892C22.5123 34.236 22.676 33.9865 22.6234 33.7318L22.3627 32.4852C22.344 32.3972 22.3006 32.3162 22.2374 32.2521L20.8287 30.8149L21.001 30.5938L22.7892 29.7903ZM33.2101 29.7913L34.9956 30.5947L35.1698 30.8167L33.7629 32.2521C33.6997 32.3163 33.6563 32.397 33.6376 32.4852L33.376 33.7317C33.3234 33.9865 33.4871 34.236 33.7417 34.2891C33.9965 34.3417 34.246 34.1779 34.2991 33.9234L34.5322 32.8123L35.7566 31.5648L35.8313 31.6596L36.1547 39.7414H34.289V35.3642C34.2881 35.1036 34.0761 34.8933 33.8155 34.8944C33.5562 34.8953 33.3456 35.105 33.3447 35.3642V41.6817H31.8651V30.9447L33.2101 29.7913ZM28.6764 30.5071L29.3628 31.8808L28.7731 32.4713H27.2271L26.6347 31.8789L27.3221 30.5071L28.6764 30.5071ZM26.5417 33.1209L26.0746 39.2089C26.0639 39.3458 26.1132 39.4809 26.21 39.5783L27.6657 41.0303C27.8501 41.2155 28.1502 41.2155 28.3346 41.0303L29.7866 39.5783C29.8847 39.4815 29.9354 39.3464 29.9257 39.2089L29.4549 33.1227L30.9216 31.7536V41.6817H28.0001H25.0787V31.7536L26.5417 33.1209ZM28.5317 33.4148L28.9684 39.0624L28.0001 40.0307L27.0318 39.0624L27.4676 33.4148H28.5317ZM19.8079 40.6858H21.7113V41.6808H19.7682L19.8079 40.6858ZM34.289 40.6858H36.1924L36.232 41.6817H34.289L34.289 40.6858Z" fill="#936601"/>
</svg>
