<svg width="56" height="56" viewBox="0 0 56 56" fill="none" xmlns="http://www.w3.org/2000/svg">
<rect width="56" height="56" rx="28" fill="#FFF8CD"/>
<path d="M26.8203 39.3072V32.5557L28.0997 32.7653L29.379 32.5557V39.3072H26.8203Z" stroke="#936601" stroke-miterlimit="10"/>
<path d="M19.3215 16.2468C19.3215 16.2468 14.9029 14.0375 14.919 18.3647C14.919 18.3647 14.876 22.1867 17.3702 25.3205C17.3702 25.3205 19.3161 28.0835 22.6865 29.1371C22.6865 29.1371 21.7512 27.6965 21.2835 26.5999C21.2835 26.5999 18.2195 24.8582 17.1175 21.2675C17.1175 21.2675 15.1716 16.3382 19.3161 18.0906V16.2468H19.3215Z" stroke="#936601" stroke-miterlimit="10" stroke-linejoin="round"/>
<path d="M28.0994 32.7654C30.3195 32.7654 32.1632 30.7604 32.1632 30.7604C34.4478 28.4543 35.6949 24.541 35.6949 24.541C37.3237 20.2783 36.727 13.688 36.727 13.688H28.0994H19.4664C19.4664 13.688 18.8751 20.2783 20.5039 24.541C20.5039 24.541 21.751 28.4597 24.0356 30.7604C24.0356 30.7604 25.8793 32.7654 28.0994 32.7654Z" stroke="#936601" stroke-miterlimit="10"/>
<path d="M36.9046 16.2468C36.9046 16.2468 41.3232 14.0375 41.3071 18.3647C41.3071 18.3647 41.3501 22.1867 38.8559 25.3205C38.8559 25.3205 36.91 28.0835 33.5396 29.1371C33.5396 29.1371 34.4749 27.6965 34.9425 26.5999C34.9425 26.5999 38.0065 24.8582 39.1085 21.2675C39.1085 21.2675 41.0544 16.3382 36.91 18.0906V16.2468H36.9046Z" stroke="#936601" stroke-miterlimit="10" stroke-linejoin="round"/>
<path d="M35.781 40.1353H20.4126V42.3714H35.781V40.1353Z" stroke="#936601" stroke-miterlimit="10"/>
<path d="M30.7338 39.3074H25.4658V40.1352H30.7338V39.3074Z" stroke="#936601" stroke-miterlimit="10"/>
</svg>
