<svg width="56" height="56" viewBox="0 0 56 56" fill="none" xmlns="http://www.w3.org/2000/svg">
<path fill-rule="evenodd" clip-rule="evenodd" d="M41.3333 8.51442C41.015 8.35298 40.6896 8.20322 40.3576 8.06569C37.7848 7 34.5232 7 28 7C21.4768 7 18.2152 7 15.6424 8.06569C12.212 9.4866 9.4866 12.212 8.06569 15.6424C7 18.2152 7 21.4768 7 28V35C7 41.5997 7 44.8995 9.05025 46.9497C11.1005 49 14.4003 49 21 49H28C34.5232 49 37.7848 49 40.3576 47.9343C43.788 46.5134 46.5134 43.788 47.9343 40.3576C49 37.7848 49 34.5232 49 28C49 21.4768 49 18.2152 47.9343 15.6424C47.7968 15.3104 47.647 14.985 47.4856 14.6667H47.3333V18.6667C47.3333 20.3235 45.9902 21.6667 44.3333 21.6667C42.6765 21.6667 41.3333 20.3235 41.3333 18.6667V14.6667H37.3333C35.6765 14.6667 34.3333 13.3235 34.3333 11.6667C34.3333 10.0098 35.6765 8.66667 37.3333 8.66667H41.3333V8.51442ZM21 22.3325C20.4477 22.3325 20 22.7803 20 23.3325C20 23.8848 20.4477 24.3325 21 24.3325H35C35.5523 24.3325 36 23.8848 36 23.3325C36 22.7803 35.5523 22.3325 35 22.3325H21ZM21 31.6659C20.4477 31.6659 20 32.1136 20 32.6659C20 33.2182 20.4477 33.6659 21 33.6659H28C28.5523 33.6659 29 33.2182 29 32.6659C29 32.1136 28.5523 31.6659 28 31.6659H21Z" fill="#0F5132"/>
<path d="M44.3335 18.6667L44.3335 4.66675M37.3335 11.6667H51.3335" stroke="#0F5132" stroke-width="2" stroke-linecap="round" stroke-linejoin="round"/>
</svg>
