<svg width="56" height="56" viewBox="0 0 56 56" fill="none" xmlns="http://www.w3.org/2000/svg">
<mask id="path-1-outside-1_343_5422" maskUnits="userSpaceOnUse" x="3.6665" y="3.66675" width="49" height="49" fill="black">
<rect fill="white" x="3.6665" y="3.66675" width="49" height="49"/>
<path d="M27.9999 4.66675C33.3982 4.66675 38.6294 6.53853 42.8024 9.96317C46.9753 13.3878 49.8317 18.1534 50.8849 23.448C51.938 28.7425 51.1228 34.2385 48.578 38.9993C46.0333 43.7602 41.9165 47.4914 36.9291 49.5573C31.9418 51.6231 26.3924 51.8957 21.2266 50.3287C16.0607 48.7616 11.598 45.4519 8.59891 40.9634C5.59978 36.4749 4.24977 31.0853 4.7789 25.713C5.30802 20.3407 7.68355 15.3181 11.5007 11.5009L18.1004 18.1006C15.8101 20.3909 14.3848 23.4045 14.0673 26.6278C13.7498 29.8512 14.5598 33.085 16.3593 35.7781C18.1588 38.4712 20.8364 40.457 23.9359 41.3972C27.0354 42.3375 30.365 42.1739 33.3574 40.9344C36.3499 39.6949 38.8199 37.4562 40.3468 34.5996C41.8736 31.7431 42.3628 28.4456 41.7309 25.2688C41.099 22.0921 39.3851 19.2327 36.8814 17.1779C34.3776 15.1232 31.2388 14.0001 27.9999 14.0001V4.66675Z"/>
</mask>
<path d="M27.9999 4.66675C33.3982 4.66675 38.6294 6.53853 42.8024 9.96317C46.9753 13.3878 49.8317 18.1534 50.8849 23.448C51.938 28.7425 51.1228 34.2385 48.578 38.9993C46.0333 43.7602 41.9165 47.4914 36.9291 49.5573C31.9418 51.6231 26.3924 51.8957 21.2266 50.3287C16.0607 48.7616 11.598 45.4519 8.59891 40.9634C5.59978 36.4749 4.24977 31.0853 4.7789 25.713C5.30802 20.3407 7.68355 15.3181 11.5007 11.5009L18.1004 18.1006C15.8101 20.3909 14.3848 23.4045 14.0673 26.6278C13.7498 29.8512 14.5598 33.085 16.3593 35.7781C18.1588 38.4712 20.8364 40.457 23.9359 41.3972C27.0354 42.3375 30.365 42.1739 33.3574 40.9344C36.3499 39.6949 38.8199 37.4562 40.3468 34.5996C41.8736 31.7431 42.3628 28.4456 41.7309 25.2688C41.099 22.0921 39.3851 19.2327 36.8814 17.1779C34.3776 15.1232 31.2388 14.0001 27.9999 14.0001V4.66675Z" fill="#0F5132"/>
<path d="M27.9999 4.66675V3.66675H26.9999V4.66675L27.9999 4.66675ZM42.8024 9.96317L43.4368 9.19016L42.8024 9.96317ZM36.9291 49.5573L37.3118 50.4811L36.9291 49.5573ZM21.2266 50.3287L20.9363 51.2856L21.2266 50.3287ZM8.59891 40.9634L7.76744 41.519L8.59891 40.9634ZM4.7789 25.713L3.78371 25.615L4.7789 25.713ZM11.5007 11.5009L12.2078 10.7938L11.5007 10.0867L10.7936 10.7938L11.5007 11.5009ZM18.1004 18.1006L18.8075 18.8077L19.5146 18.1006L18.8075 17.3935L18.1004 18.1006ZM14.0673 26.6278L13.0721 26.5298L14.0673 26.6278ZM16.3593 35.7781L15.5278 36.3336L16.3593 35.7781ZM23.9359 41.3972L23.6456 42.3542L23.9359 41.3972ZM33.3574 40.9344L33.7401 41.8583L33.3574 40.9344ZM40.3468 34.5996L41.2287 35.071L40.3468 34.5996ZM41.7309 25.2688L40.7501 25.4639L41.7309 25.2688ZM36.8814 17.1779L37.5158 16.4049L36.8814 17.1779ZM27.9999 14.0001H26.9999V15.0001H27.9999V14.0001ZM27.9999 5.66675C33.1668 5.66675 38.1739 7.45831 42.168 10.7362L43.4368 9.19016C39.085 5.61875 33.6295 3.66675 27.9999 3.66675V5.66675ZM42.168 10.7362C46.1621 14.0141 48.8961 18.5754 49.9041 23.6431L51.8656 23.2529C50.7674 17.7314 47.7886 12.7616 43.4368 9.19016L42.168 10.7362ZM49.9041 23.6431C50.9121 28.7107 50.1318 33.9711 47.6961 38.5279L49.46 39.4707C52.1138 34.5058 52.9639 28.7744 51.8656 23.2529L49.9041 23.6431ZM47.6961 38.5279C45.2604 43.0848 41.3201 46.6561 36.5465 48.6334L37.3118 50.4811C42.5129 48.3268 46.8062 44.4356 49.46 39.4707L47.6961 38.5279ZM36.5465 48.6334C31.7728 50.6107 26.4613 50.8716 21.5168 49.3717L20.9363 51.2856C26.3235 52.9198 32.1107 52.6355 37.3118 50.4811L36.5465 48.6334ZM21.5168 49.3717C16.5724 47.8719 12.301 44.704 9.43038 40.4078L7.76744 41.519C10.8951 46.1998 15.549 49.6514 20.9363 51.2856L21.5168 49.3717ZM9.43038 40.4078C6.55979 36.1117 5.26763 30.9531 5.77408 25.811L3.78371 25.615C3.23191 31.2175 4.63978 36.8381 7.76744 41.519L9.43038 40.4078ZM5.77408 25.811C6.28053 20.669 8.55425 15.8616 12.2078 12.208L10.7936 10.7938C6.81285 14.7746 4.33552 20.0125 3.78371 25.615L5.77408 25.811ZM10.7936 12.208L17.3933 18.8077L18.8075 17.3935L12.2078 10.7938L10.7936 12.208ZM17.3933 17.3935C14.9394 19.8474 13.4123 23.0762 13.0721 26.5298L15.0625 26.7259C15.3573 23.7327 16.6808 20.9344 18.8075 18.8077L17.3933 17.3935ZM13.0721 26.5298C12.7319 29.9834 13.5998 33.4482 15.5278 36.3336L17.1908 35.2225C15.5198 32.7217 14.7677 29.719 15.0625 26.7259L13.0721 26.5298ZM15.5278 36.3336C17.4558 39.2191 20.3247 41.3468 23.6456 42.3542L24.2262 40.4403C21.3481 39.5672 18.8617 37.7232 17.1908 35.2225L15.5278 36.3336ZM23.6456 42.3542C26.9665 43.3616 30.534 43.1863 33.7401 41.8583L32.9748 40.0105C30.1961 41.1615 27.1043 41.3134 24.2262 40.4403L23.6456 42.3542ZM33.7401 41.8583C36.9463 40.5302 39.5928 38.1316 41.2287 35.071L39.4648 34.1282C38.0471 36.7807 35.7534 38.8596 32.9748 40.0105L33.7401 41.8583ZM41.2287 35.071C42.8646 32.0105 43.3887 28.4774 42.7117 25.0737L40.7501 25.4639C41.3368 28.4137 40.8826 31.4758 39.4648 34.1282L41.2287 35.071ZM42.7117 25.0737C42.0346 21.6701 40.1984 18.6065 37.5158 16.4049L36.247 17.9509C38.5719 19.859 40.1633 22.5141 40.7501 25.4639L42.7117 25.0737ZM37.5158 16.4049C34.8332 14.2034 31.4702 13.0001 27.9999 13.0001V15.0001C31.0075 15.0001 33.9221 16.0429 36.247 17.9509L37.5158 16.4049ZM28.9999 14.0001V4.66675L26.9999 4.66675V14.0001H28.9999Z" fill="#0F5132" mask="url(#path-1-outside-1_343_5422)"/>
<path d="M27.9998 28.0001L11.6665 11.6667" stroke="#0F5132" stroke-width="2" stroke-linecap="round"/>
</svg>
