<svg width="56" height="56" viewBox="0 0 56 56" fill="none" xmlns="http://www.w3.org/2000/svg">
<rect width="56" height="56" rx="28" fill="#FFF8CD"/>
<path d="M41.3332 34.3199V18.2266C41.3332 16.6266 40.0265 15.4399 38.4398 15.5733H38.3598C35.5598 15.8133 31.3065 17.2399 28.9332 18.7333L28.7065 18.8799C28.3198 19.1199 27.6798 19.1199 27.2932 18.8799L26.9598 18.6799C24.5865 17.1999 20.3465 15.7866 17.5465 15.5599C15.9598 15.4266 14.6665 16.6266 14.6665 18.2133V34.3199C14.6665 35.5999 15.7065 36.7999 16.9865 36.9599L17.3732 37.0133C20.2665 37.3999 24.7332 38.8666 27.2932 40.2666L27.3465 40.2933C27.7065 40.4933 28.2798 40.4933 28.6265 40.2933C31.1865 38.8799 35.6665 37.3999 38.5732 37.0133L39.0132 36.9599C40.2932 36.7999 41.3332 35.5999 41.3332 34.3199Z" stroke="#936601" stroke-width="1.5" stroke-linecap="round" stroke-linejoin="round"/>
<path d="M28 19.3201V39.3201" stroke="#936601" stroke-width="1.5" stroke-linecap="round" stroke-linejoin="round"/>
<path d="M22.3335 23.3201H19.3335" stroke="#936601" stroke-width="1.5" stroke-linecap="round" stroke-linejoin="round"/>
<path d="M23.3335 27.3201H19.3335" stroke="#936601" stroke-width="1.5" stroke-linecap="round" stroke-linejoin="round"/>
</svg>
