<svg width="56" height="56" viewBox="0 0 56 56" fill="none" xmlns="http://www.w3.org/2000/svg">
<rect width="56" height="56" rx="28" fill="#FFF8CD"/>
<path d="M40.5 25.5C40.5 27.0472 38.8334 28.5 36.5 28.5C34.1666 28.5 32.5 27.0472 32.5 25.5C32.5 23.9528 34.1666 22.5 36.5 22.5C38.8334 22.5 40.5 23.9528 40.5 25.5Z" stroke="#936601"/>
<ellipse cx="36.5" cy="26" rx="1.5" ry="1" fill="#936601"/>
<ellipse cx="22.5" cy="30.5" rx="1.5" ry="2.5" fill="#936601"/>
<path d="M23 29C27.4547 29 28.8087 21.5354 28.9805 16.9977C29.0014 16.4458 28.5523 16 28 16H26.6" stroke="#936601" stroke-linecap="round"/>
<path d="M23 29C17.0603 29 15.255 21.5352 15.026 16.9975C14.9982 16.4459 15.4477 16 16 16H18.2" stroke="#936601" stroke-linecap="round"/>
<path d="M37 29V32C37 35.866 33.866 39 30 39V39C26.134 39 23 35.866 23 32V30.4286" stroke="#936601" stroke-linecap="round"/>
</svg>
