<svg width="56" height="56" viewBox="0 0 56 56" fill="none" xmlns="http://www.w3.org/2000/svg">
<path fill-rule="evenodd" clip-rule="evenodd" d="M39.7037 30.6631L29.3877 36.1609L34.9466 45.0486L45.2626 39.5508C47.9213 38.1338 48.8324 34.9957 47.2973 32.5413C45.7623 30.0871 42.3624 29.2462 39.7037 30.6631ZM36.5348 47.588L46.8509 42.0902C51.0289 39.8635 52.4604 34.9319 50.0482 31.0753C47.6359 27.2186 42.2935 25.8972 38.1155 28.1239L27.7994 33.6217C27.5801 33.271 27.0944 33.1509 26.7147 33.3534L15.0232 39.5842C10.4653 42.0132 8.90368 47.3931 11.5351 51.6003C14.1667 55.8077 19.9948 57.2491 24.5527 54.8201L36.2442 48.5893C36.6239 48.3868 36.7542 47.9385 36.5348 47.588ZM21.6095 39.1746L15.663 42.3113C13.2706 43.5732 12.208 46.1449 12.8673 48.4881C13.0879 49.2717 14.0825 49.5164 14.8441 49.1147C15.2249 48.9139 15.3472 48.4666 15.2178 48.0798C14.7307 46.625 15.3737 44.9967 16.8449 44.2207L22.7915 41.084C23.3627 40.7827 23.5612 40.1111 23.2348 39.5838C22.9084 39.0566 22.1807 38.8733 21.6095 39.1746Z" fill="#0F5132"/>
<path fill-rule="evenodd" clip-rule="evenodd" d="M26.8211 34.9895L21.9764 37.5714C23.0171 37.4943 24.0615 37.9643 24.6137 38.8564C25.3753 40.0866 24.9123 41.6539 23.5795 42.3568L17.633 45.4935C16.8338 45.9152 16.4588 46.8213 16.7352 47.6469C17.0203 48.4985 16.83 49.7557 15.6322 50.3876C14.88 50.7843 13.982 50.8808 13.1721 50.6433C12.9974 50.5919 12.827 50.5249 12.6643 50.4424C12.7409 50.5855 12.8229 50.7271 12.9105 50.8673C15.1036 54.3734 19.9603 55.5747 23.7586 53.5505L34.7623 47.6862L26.8211 34.9895ZM29.3877 36.1609L39.7037 30.6631C42.3624 29.2462 45.7623 30.0871 47.2973 32.5413C48.8324 34.9957 47.9213 38.1338 45.2626 39.5508L34.9466 45.0486L29.3877 36.1609ZM36.5348 47.588L46.8509 42.0902C51.0289 39.8635 52.4604 34.9319 50.0482 31.0753C47.6359 27.2186 42.2935 25.8972 38.1155 28.1239L27.7994 33.6217C27.5801 33.2713 27.0944 33.1509 26.7147 33.3534L15.0232 39.5842C10.4653 42.0132 8.90368 47.3931 11.5351 51.6003C14.1667 55.8077 19.9948 57.2491 24.5527 54.8201L36.2442 48.5893C36.6239 48.3868 36.7542 47.9385 36.5348 47.588ZM15.663 42.3113L21.6095 39.1746C22.1807 38.8733 22.9084 39.0566 23.2348 39.5838C23.5612 40.1111 23.3627 40.7827 22.7915 41.084L16.8449 44.2207C15.3737 44.9967 14.7307 46.625 15.2178 48.0798C15.3472 48.4666 15.2249 48.9139 14.8441 49.1147C14.0825 49.5164 13.0879 49.2717 12.8673 48.4881C12.208 46.1449 13.2706 43.5732 15.663 42.3113Z" fill="#0F5132"/>
<path d="M52.4654 18.6398C52.7961 18.9451 53.3418 18.9223 53.615 18.572C57.1909 13.9884 56.7453 7.55864 52.2783 3.43523C47.8112 -0.688191 40.8456 -1.0995 35.8801 2.20128C35.5005 2.45352 35.4759 2.95728 35.8065 3.26249L52.4654 18.6398Z" fill="#0F5132"/>
<path d="M34.1223 4.81758C33.7916 4.51236 33.2459 4.5351 32.9725 4.88538C29.3967 9.46886 29.8424 15.8986 34.3095 20.0221C38.7765 24.1455 45.7421 24.5568 50.7076 21.2561C51.087 21.0038 51.1117 20.5001 50.781 20.1948L34.1223 4.81758Z" fill="#0F5132"/>
<path d="M10.9187 6.54058C12.2573 4.46418 15.5893 4.68956 16.5857 6.92387L24.3779 24.3969C25.2768 26.4125 23.5634 28.5967 21.2085 28.4374L2.94821 27.2024C0.593167 27.0431 -0.75696 24.6517 0.450589 22.7787L10.9187 6.54058Z" fill="#0F5132"/>
</svg>
